Coordinates
version=1
nRows=14
nColumns=40
inDegrees=yes

Units are S.I. units (second, meters, Newtons, ...)
Angles are in degrees.

endheader
time	pelvis_tilt	pelvis_list	pelvis_rotation	pelvis_tx	pelvis_ty	pelvis_tz	hip_flexion_r	hip_adduction_r	hip_rotation_r	knee_angle_r	knee_angle_r_beta	ankle_angle_r	subtalar_angle_r	mtp_angle_r	hip_flexion_l	hip_adduction_l	hip_rotation_l	knee_angle_l	knee_angle_l_beta	ankle_angle_l	subtalar_angle_l	mtp_angle_l	lumbar_extension	lumbar_bending	lumbar_rotation	arm_flex_r	arm_add_r	arm_rot_r	elbow_flex_r	pro_sup_r	wrist_flex_r	wrist_dev_r	arm_flex_l	arm_add_l	arm_rot_l	elbow_flex_l	pro_sup_l	wrist_flex_l	wrist_dev_l
     50.14000000	     -2.19989283	     -4.97737647	      1.79215419	      1.04444578	      0.93076307	      0.39689129	     29.07869542	     -7.35253925	     -5.69149124	     67.44948824	     67.44948824	     -3.28637242	    -15.24013248	     -0.11921284	     16.50319541	     -6.49967667	     -6.93773242	     26.05835732	     26.05835732	     13.87208882	    -10.30452408	      1.63482118	    -11.90310091	      5.68787639	      1.55579145	      2.77283151	    -11.14122659	    -11.02626177	     29.07403317	     46.21479039	      0.00000000	      0.00000000	     17.30475626	    -17.47999720	      3.57386676	     57.28470013	     46.82492239	      0.00000000	      0.00000000
     50.15314286	     -2.30230977	     -5.00158907	      1.40858061	      1.04361649	      0.93175274	      0.39666092	     29.65360830	     -7.31121817	     -5.72344584	     65.61189729	     65.61189729	     -2.98400386	    -14.97119012	     -0.11588525	     15.84738661	     -6.52938477	     -7.30347033	     25.40249324	     25.40249324	     13.96466071	    -10.19112628	      1.74935240	    -11.90162028	      5.72359487	      1.48673382	      1.55785135	    -11.30081547	    -11.03751973	     28.46950086	     46.23268053	      0.00000000	      0.00000000	     18.20041138	    -17.81348456	      3.29709111	     58.00671737	     46.86654640	      0.00000000	      0.00000000
     50.16628571	     -2.36895377	     -5.02620814	      1.00522230	      1.04281660	      0.93272161	      0.39651163	     30.07729682	     -7.20615418	     -5.72538593	     63.56183689	     63.56183689	     -2.74225516	    -14.70949412	     -0.05915575	     15.14500704	     -6.57382861	     -7.73411132	     24.74300736	     24.74300736	     14.07887079	    -10.01382666	      1.80398535	    -11.97418866	      5.74140715	      1.58103840	      0.27327516	    -11.50711803	    -11.07171721	     27.91979535	     46.24951523	      0.00000000	      0.00000000	     19.07962991	    -18.06840524	      2.96523301	     59.07827404	     46.91757130	      0.00000000	      0.00000000
     50.17942857	     -2.40061825	     -5.02460419	      0.56378534	      1.04201253	      0.93361650	      0.39654837	     30.34828931	     -7.06972457	     -5.69304912	     61.27303898	     61.27303898	     -2.54505247	    -14.39601347	     -0.04600663	     14.41530054	     -6.62745882	     -8.29367310	     24.11135994	     24.11135994	     14.15862323	     -9.68625638	      1.65910712	    -12.15236986	      5.67626021	      1.85174260	     -1.12629352	    -11.72857179	    -11.19255442	     27.60797064	     46.26368276	      0.00000000	      0.00000000	     19.72491280	    -18.27472077	      2.40710782	     61.13740850	     47.00301035	      0.00000000	      0.00000000
     50.19257143	     -2.54531541	     -5.09214052	      0.19140230	      1.04114875	      0.93426720	      0.39661841	     30.58037019	     -6.86690663	     -5.79022238	     58.67149826	     58.67149826	     -2.27869074	    -14.00114584	      0.14211115	     13.87459177	     -6.71050328	     -8.66024376	     23.54213029	     23.54213029	     14.24266457	     -9.57085742	      1.65690837	    -12.12453263	      5.75231057	      1.71292802	     -2.22295612	    -11.91974283	    -11.26841126	     27.32301709	     46.27377176	      0.00000000	      0.00000000	     20.35543942	    -18.65570731	      2.01960759	     62.10791139	     47.05460470	      0.00000000	      0.00000000
     50.20571429	     -2.67972793	     -5.11370425	     -0.22165213	      1.04022878	      0.93475177	      0.39693790	     30.68572720	     -6.65517855	     -5.84881349	     55.76723184	     55.76723184	     -2.04782314	    -13.47648590	      0.08187724	     13.31200344	     -6.78499847	     -9.17420110	     22.95659212	     22.95659212	     14.23853608	     -9.30856315	      1.20330179	    -12.24249038	      5.69720961	      1.65922920	     -3.46775392	    -12.09968773	    -11.50537413	     27.70552872	     46.27030169	      0.00000000	      0.00000000	     20.38501953	    -19.00080836	      0.92998954	     64.74817780	     47.18902996	      0.00000000	      0.00000000
     50.21885714	     -2.88372017	     -5.17535793	     -0.58258382	      1.03919579	      0.93506371	      0.39739181	     30.70133118	     -6.38067236	     -5.99491152	     52.49194055	     52.49194055	     -1.70088368	    -12.74862444	      0.25144854	     12.89314074	     -6.86624172	     -9.47638635	     22.45068215	     22.45068215	     14.32062402	     -9.28008521	      1.19724995	    -12.18130756	      5.71388916	      1.55675309	     -4.38886632	    -12.30760556	    -11.54875571	     27.44493588	     46.27833171	      0.00000000	      0.00000000	     20.96747473	    -19.29026581	      0.56952531	     65.44647261	     47.23302524	      0.00000000	      0.00000000
     50.23200000	     -3.04915808	     -5.18744667	     -0.96434668	      1.03820983	      0.93528245	      0.39797166	     30.51648011	     -6.12241090	     -6.14678626	     48.83766167	     48.83766167	     -1.30336030	    -11.68055829	      0.18793534	     12.40998984	     -6.90475753	     -9.82474688	     21.92139803	     21.92139803	     14.42276331	     -9.17639062	      1.06842683	    -12.22226779	      5.69545345	      1.69418306	     -5.34533235	    -12.52080850	    -11.62019532	     27.33873161	     46.28178634	      0.00000000	      0.00000000	     21.45907124	    -19.41015023	      0.06270755	     66.57933180	     47.29442513	      0.00000000	      0.00000000
     50.24514286	     -3.46159558	     -5.22214249	     -1.35588231	      1.03699782	      0.93504935	      0.39892227	     30.47573427	     -5.75538598	     -6.32718312	     44.84643767	     44.84643767	     -0.87005604	    -10.46829215	      0.22689866	     12.27786249	     -7.00240172	    -10.15304296	     21.49844350	     21.49844350	     14.45848501	     -9.15424445	      0.99202518	    -11.99636610	      5.66032986	      1.67867632	     -6.15884524	    -12.66074333	    -11.68813895	     27.25184353	     46.28435337	      0.00000000	      0.00000000	     21.85249809	    -19.67117902	     -0.31442809	     67.31360706	     47.33775958	      0.00000000	      0.00000000
     50.25828571	     -3.64059669	     -5.19193757	     -1.73455266	      1.03607442	      0.93491828	      0.39989045	     29.85943999	     -5.48579534	     -6.72636051	     40.22029443	     40.22029443	     -1.25154199	     -8.93217077	     -2.62420935	     11.80846010	     -7.02032505	    -10.54938202	     20.94786071	     20.94786071	     14.26446902	     -9.16029557	     -0.08519826	    -12.09971679	      5.56738433	      1.41610081	     -7.15870778	    -12.84472922	    -12.02930480	     28.69493090	     46.24403716	      0.00000000	      0.00000000	     21.26984336	    -19.69216591	     -2.28117208	     70.08727719	     47.52866823	      0.00000000	      0.00000000
     50.27142857	     -4.00907026	     -5.22501166	     -2.09270754	      1.03497844	      0.93452303	      0.40116953	     29.38229810	     -5.00203942	     -7.03953492	     35.47836216	     35.47836216	     -0.80268314	     -7.00516236	     -2.50752786	     11.64260245	     -7.12265923	    -10.79698600	     20.56568036	     20.56568036	     14.38439270	     -9.20179768	     -0.18286362	    -11.90436697	      5.56371250	      1.48075190	     -7.72580146	    -13.01719314	    -12.03143808	     28.50992115	     46.24844647	      0.00000000	      0.00000000	     21.57402576	    -19.78341775	     -2.46032034	     70.49022027	     47.55144991	      0.00000000	      0.00000000
     50.28457143	     -4.26338991	     -5.17081682	     -2.45917038	      1.03403193	      0.93415586	      0.40254321	     28.60275866	     -4.61422772	     -7.56453602	     30.46989893	     30.46989893	     -0.42626211	     -4.27301390	     -2.59466571	     11.33615294	     -7.14199481	    -11.12275321	     20.18644117	     20.18644117	     14.47077925	     -9.18841343	     -0.42474153	    -11.86127559	      5.44245216	      1.62974224	     -8.26007400	    -13.16207952	    -12.07340343	     28.50310332	     46.24846965	      0.00000000	      0.00000000	     21.81291397	    -19.78787946	     -2.79751237	     71.13305955	     47.58918407	      0.00000000	      0.00000000
     50.29771429	     -4.54503948	     -5.04131421	     -2.81907151	      1.03324228	      0.93356753	      0.40409975	     27.74222274	     -4.27840584	     -8.33566448	     25.40328921	     25.40328921	     -0.23316521	     -0.97907627	     -2.73454873	     11.02236522	     -7.08879152	    -11.47784731	     19.74078410	     19.74078410	     14.45878480	     -9.15564518	     -0.94328519	    -11.77650139	      5.23459151	      1.68839485	     -8.73777400	    -13.23363311	    -12.18656070	     28.79911580	     46.24149329	      0.00000000	      0.00000000	     21.79439003	    -19.72641244	     -3.39024668	     71.95012261	     47.64670937	      0.00000000	      0.00000000
     50.31085714	     -4.90253802	     -5.00067615	     -3.14079194	      1.03251588	      0.93275796	      0.40597116	     26.86983301	     -3.63760473	     -8.76031348	     20.37815783	     20.37815783	     -0.17158991	      1.58362634	     -1.86517749	     10.88037630	     -7.15789987	    -11.69052132	     19.47331268	     19.47331268	     14.55444613	     -9.24840671	     -1.23338948	    -11.54273707	      5.16770837	      1.72582514	     -9.05537800	    -13.29380258	    -12.24979827	     28.89064637	     46.24001776	      0.00000000	      0.00000000	     21.73520265	    -19.71340163	     -3.59370665	     72.32520040	     47.66793054	      0.00000000	      0.00000000
